<svg width="24" height="9" viewBox="0 0 24 9" fill="none" xmlns="http://www.w3.org/2000/svg">
<path d="M7.58778 0.248875L4.73441 5.57363V8.78006H2.95177V5.57363L0 0.248875H2.10096L3.87203 3.96463L5.56785 0.248875H7.58778Z" fill="#4AF7BD"/>
<path d="M14.5447 5.05273H10.4006V7.2463H15.1235V8.78006H8.65852V0.248875H14.9151V1.75949H10.4006V3.57106H14.5447V5.05273Z" fill="#4AF7BD"/>
<path d="M19.609 7.54727C20.0296 7.54727 20.3711 7.50096 20.6334 7.40836C21.1312 7.23087 21.3801 6.90096 21.3801 6.41865C21.3801 6.13698 21.2566 5.91897 21.0096 5.76463C20.7627 5.61415 20.3749 5.48103 19.8463 5.36527L18.9434 5.1627C18.0559 4.96206 17.4424 4.74405 17.1029 4.50868C16.528 4.11511 16.2405 3.49968 16.2405 2.66238C16.2405 1.89839 16.5183 1.26367 17.074 0.758199C17.6296 0.252733 18.4457 0 19.5222 0C20.4212 0 21.1871 0.239228 21.8199 0.717685C22.4566 1.19228 22.7904 1.88296 22.8212 2.78971H21.108C21.0772 2.27653 20.8534 1.9119 20.4367 1.69582C20.1588 1.55305 19.8135 1.48167 19.4006 1.48167C18.9415 1.48167 18.5749 1.57428 18.301 1.75949C18.027 1.94469 17.89 2.20322 17.89 2.53505C17.89 2.83987 18.0251 3.06752 18.2952 3.21801C18.4688 3.31833 18.8392 3.43601 19.4064 3.57106L20.8765 3.92412C21.5209 4.07846 22.0071 4.28489 22.335 4.54341C22.8444 4.94469 23.099 5.5254 23.099 6.28553C23.099 7.06495 22.8 7.71318 22.2019 8.23022C21.6077 8.74341 20.7666 9 19.6785 9C18.5672 9 17.6932 8.74727 17.0566 8.2418C16.4199 7.73248 16.1016 7.03408 16.1016 6.14662H17.8032C17.8572 6.53633 17.9633 6.82765 18.1215 7.02058C18.4109 7.3717 18.9068 7.54727 19.609 7.54727Z" fill="#4AF7BD"/>
</svg>
