<svg width="18" height="9" viewBox="0 0 18 9" fill="none" xmlns="http://www.w3.org/2000/svg">
<path d="M7.62958 8.76346H5.85266L2.37959 2.72308V8.76346H0.723816V0.259615H2.58728L5.97382 6.19615V0.259615H7.62958V8.76346Z" fill="#DD5E73"/>
<path d="M13.0527 9C11.8373 9 10.9084 8.66923 10.2661 8.00769C9.40458 7.19615 8.97381 6.02692 8.97381 4.5C8.97381 2.94231 9.40458 1.77308 10.2661 0.992308C10.9084 0.330769 11.8373 0 13.0527 0C14.268 0 15.1969 0.330769 15.8392 0.992308C16.6969 1.77308 17.1257 2.94231 17.1257 4.5C17.1257 6.02692 16.6969 7.19615 15.8392 8.00769C15.1969 8.66923 14.268 9 13.0527 9ZM14.7315 6.71538C15.143 6.19615 15.3488 5.45769 15.3488 4.5C15.3488 3.54615 15.1411 2.80962 14.7257 2.29038C14.3142 1.76731 13.7565 1.50577 13.0527 1.50577C12.3488 1.50577 11.7873 1.76538 11.368 2.28462C10.9488 2.80385 10.7392 3.54231 10.7392 4.5C10.7392 5.45769 10.9488 6.19615 11.368 6.71538C11.7873 7.23462 12.3488 7.49423 13.0527 7.49423C13.7565 7.49423 14.3161 7.23462 14.7315 6.71538Z" fill="#DD5E73"/>
</svg>
