<svg width="44" height="44" viewBox="0 0 44 44" fill="none" xmlns="http://www.w3.org/2000/svg">
<path d="M23.8362 27.8438C23.8888 28.0278 23.9162 28.2227 23.9162 28.425C23.9162 29.5484 23.0581 30.4594 22 30.4594C20.9419 30.4594 20.0837 29.5484 20.0837 28.425C20.0837 28.2227 20.1112 28.0278 20.1637 27.8438" stroke="#2B303B" stroke-width="1.5" stroke-miterlimit="10" stroke-linecap="round" stroke-linejoin="round"/>
<path d="M29.4134 26.7029C29.552 27.0324 29.3101 27.3968 28.9525 27.3968H15.0458C14.6883 27.3968 14.4463 27.0324 14.585 26.7029L16.4561 22.2561C16.4819 22.1947 16.4952 22.1288 16.4952 22.0622V19.3223C16.4952 16.1292 18.9592 13.541 21.9992 13.541C25.0399 13.541 27.5031 16.13 27.5031 19.3223V22.0622C27.5031 22.1288 27.5164 22.1947 27.5423 22.2561L29.4134 26.7029Z" stroke="#2B303B" stroke-width="1.5" stroke-linejoin="round"/>
</svg>
